# xmcd
#
# Track frame offsets:
#	150
#	17853
#	27713
#	41002
#	53795
#	68296
#	83439
#	97646
#	108536
#	128270
#	143585
#	158453
#	168714
#	179550
#
# Disc length: 2592 seconds
#
# Revision: 0
# Processed by: cddbd v1.5.2PL0 Copyright (c) Steve Scherf et al.
# Submitted via: dBpowerAMP V4.0
#
DISCID=a40a1e0e
DTITLE=Various Artist - Blues and Soul
DYEAR=1900
DGENRE=Blues
TTITLE0=Percy Sledge - When a man loves a woman
TTITLE1=John Lee hooker - Dimples
TTITLE2=Temptations - My girl
TTITLE3=Sonny boy Williamson - Keep it yourself
TTITLE4=B. J. Thomas - Hooked on a feeling
TTITLE5=Mary Wells - My guy
TTITLE6=Ray Charles -  Walkin' and talkin'
TTITLE7=The Platters - Smoke gets in your eyes
TTITLE8=James Brown - You can't keep a good man down
TTITLE9=Dobie Gray - Feelings
TTITLE10=Elmor James - It hurts me too
TTITLE11=Martha Reeves - In the midnight hour
TTITLE12=Fast Domino - Walkin' to New Orleans
TTITLE13=Harold Melvin - Satisfaccion guarranted
EXTD=Oldies collection album, compiled by a company from mexico. david
EXTT0=
EXTT1=
EXTT2=
EXTT3=
EXTT4=
EXTT5=
EXTT6=
EXTT7=
EXTT8=
EXTT9=
EXTT10=
EXTT11=
EXTT12=
EXTT13=
PLAYORDER=
